<svg xmlns="http://www.w3.org/2000/svg" viewBox="0 0 80 80" xml:space="preserve"><path fill="#4F46E5" d="M24.381 59.421h.059v5.407l10.823-10.039s26.53.293 28.528-.242c1.998-.535 2.543-2.672 2.543-8.194 0-4.758-.224-20.544-.364-25.652H20.313c-1.732 0-2.41.665-2.41 2.365v27.087h6.479v9.268z"/><path fill="#4F4695" d="M19.536 66.938c-.494-.544-.728-1.279-.726-2.058l-.002-9.022h-2.309c-2.335-.002-4.226-1.856-4.228-4.145V19.147c0-2.291 1.892-4.145 4.228-4.147h46.274v2.138H16.499c-1.131.002-2.047.9-2.048 2.009v32.566c.002 1.107.918 2.005 2.048 2.007h4.49v11.16c.001.382.105.563.178.64.075.077.133.113.309.119.196.004.561-.096.988-.448 1.791-1.485 10.459-9.671 12.042-11.172l.317-.299h27.95c1.13-.002 2.045-.9 2.047-2.007l-.001-32.566c-.002-1.11-.916-2.008-2.046-2.009V15c2.333.002 4.226 1.856 4.226 4.147L67 51.713c-.001 2.289-1.893 4.143-4.227 4.145H35.704c-2.197 2.075-9.984 9.428-11.835 10.968-.73.599-1.55.949-2.392.951h-.023c-.714-.001-1.435-.296-1.918-.839z"/><path fill="#FFF" d="M48.082 36.553c-.954 0-1.726-.756-1.726-1.691 0-.934.772-1.692 1.726-1.692h2.361v1.247-1.247c.952 0 1.724.758 1.724 1.692 0 .935-.772 1.691-1.724 1.691h-2.361zm-18.889 0c-.954 0-1.725-.756-1.725-1.691 0-.934.771-1.692 1.725-1.692h2.362v1.247-1.247c.952 0 1.725.758 1.725 1.692 0 .935-.773 1.691-1.725 1.691h-2.362z"/></svg>